<mxfile host="app.diagrams.net" modified="2023-10-11T23:43:35.242Z" agent="Mozilla/5.0 (Windows NT 10.0; Win64; x64) AppleWebKit/537.36 (KHTML, like Gecko) Chrome/117.0.0.0 Safari/537.36" etag="bvT-EyfPEl5yNYxYdYFf" version="22.0.4" type="device">
  <diagram name="Page-1" id="aoM8PHcoAs3H3TJjdw_T">
    <mxGraphModel dx="1434" dy="768" grid="1" gridSize="10" guides="1" tooltips="1" connect="1" arrows="1" fold="1" page="1" pageScale="1" pageWidth="827" pageHeight="1169" math="0" shadow="0">
      <root>
        <mxCell id="0" />
        <mxCell id="1" parent="0" />
        <mxCell id="--o1KW6Nt54trlVGo0NL-1" value="" style="endArrow=oval;html=1;rounded=0;endFill=0;" parent="1" target="--o1KW6Nt54trlVGo0NL-3" edge="1">
          <mxGeometry relative="1" as="geometry">
            <mxPoint x="651" y="151" as="sourcePoint" />
            <mxPoint x="691" y="150" as="targetPoint" />
          </mxGeometry>
        </mxCell>
        <mxCell id="--o1KW6Nt54trlVGo0NL-2" value="" style="endArrow=block;html=1;rounded=0;endFill=0;" parent="1" edge="1">
          <mxGeometry relative="1" as="geometry">
            <mxPoint x="425" y="152" as="sourcePoint" />
            <mxPoint x="495" y="152" as="targetPoint" />
          </mxGeometry>
        </mxCell>
        <mxCell id="--o1KW6Nt54trlVGo0NL-3" value="Atributo" style="text;html=1;align=center;verticalAlign=middle;resizable=0;points=[];autosize=1;strokeColor=none;fillColor=none;rounded=0;" parent="1" vertex="1">
          <mxGeometry x="701" y="132" width="60" height="30" as="geometry" />
        </mxCell>
        <mxCell id="--o1KW6Nt54trlVGo0NL-4" value="" style="endArrow=oval;html=1;rounded=0;endFill=0;" parent="1" source="--o1KW6Nt54trlVGo0NL-12" target="--o1KW6Nt54trlVGo0NL-9" edge="1">
          <mxGeometry relative="1" as="geometry">
            <mxPoint x="165.35533905932743" y="177.85786437626894" as="sourcePoint" />
            <mxPoint x="330" y="102" as="targetPoint" />
          </mxGeometry>
        </mxCell>
        <mxCell id="--o1KW6Nt54trlVGo0NL-5" value="" style="endArrow=oval;html=1;rounded=0;endFill=0;" parent="1" source="--o1KW6Nt54trlVGo0NL-12" target="--o1KW6Nt54trlVGo0NL-10" edge="1">
          <mxGeometry relative="1" as="geometry">
            <mxPoint x="180" y="192" as="sourcePoint" />
            <mxPoint x="340" y="112" as="targetPoint" />
          </mxGeometry>
        </mxCell>
        <mxCell id="--o1KW6Nt54trlVGo0NL-6" value="" style="endArrow=oval;html=1;rounded=0;endFill=0;" parent="1" source="--o1KW6Nt54trlVGo0NL-12" target="--o1KW6Nt54trlVGo0NL-11" edge="1">
          <mxGeometry relative="1" as="geometry">
            <mxPoint x="165.35533905932743" y="206.14213562373095" as="sourcePoint" />
            <mxPoint x="350" y="122" as="targetPoint" />
          </mxGeometry>
        </mxCell>
        <mxCell id="--o1KW6Nt54trlVGo0NL-7" value="" style="endArrow=oval;html=1;rounded=0;endFill=0;" parent="1" source="--o1KW6Nt54trlVGo0NL-12" target="--o1KW6Nt54trlVGo0NL-8" edge="1">
          <mxGeometry relative="1" as="geometry">
            <mxPoint x="130" y="172" as="sourcePoint" />
            <mxPoint x="170" y="130" as="targetPoint" />
          </mxGeometry>
        </mxCell>
        <mxCell id="--o1KW6Nt54trlVGo0NL-8" value="piso (0, 1)" style="text;html=1;align=center;verticalAlign=middle;resizable=0;points=[];autosize=1;strokeColor=none;fillColor=none;rounded=0;" parent="1" vertex="1">
          <mxGeometry x="130" y="110" width="80" height="30" as="geometry" />
        </mxCell>
        <mxCell id="--o1KW6Nt54trlVGo0NL-9" value="departamento (0, 1)" style="text;html=1;align=center;verticalAlign=middle;resizable=0;points=[];autosize=1;strokeColor=none;fillColor=none;rounded=0;" parent="1" vertex="1">
          <mxGeometry x="216" y="132" width="130" height="30" as="geometry" />
        </mxCell>
        <mxCell id="--o1KW6Nt54trlVGo0NL-10" value="numero" style="text;html=1;align=center;verticalAlign=middle;resizable=0;points=[];autosize=1;strokeColor=none;fillColor=none;rounded=0;" parent="1" vertex="1">
          <mxGeometry x="240" y="162" width="60" height="30" as="geometry" />
        </mxCell>
        <mxCell id="--o1KW6Nt54trlVGo0NL-11" value="calle" style="text;html=1;align=center;verticalAlign=middle;resizable=0;points=[];autosize=1;strokeColor=none;fillColor=none;rounded=0;" parent="1" vertex="1">
          <mxGeometry x="245" y="200" width="50" height="30" as="geometry" />
        </mxCell>
        <mxCell id="--o1KW6Nt54trlVGo0NL-12" value="DirecciÃ³n" style="ellipse;whiteSpace=wrap;html=1;align=center;rounded=0;" parent="1" vertex="1">
          <mxGeometry x="66" y="169" width="100" height="40" as="geometry" />
        </mxCell>
      </root>
    </mxGraphModel>
  </diagram>
</mxfile>
